<svg width="1080" height="1080" viewBox="0 0 1080 1080" fill="none" xmlns="http://www.w3.org/2000/svg">
<path d="M540 450L387.135 295.2C369.728 277.493 359.973 253.656 359.973 228.825C359.973 203.994 369.728 180.157 387.135 162.45C395.681 153.742 405.876 146.825 417.126 142.103C428.376 137.381 440.454 134.949 452.655 134.949C464.856 134.949 476.934 137.381 488.184 142.103C499.434 146.825 509.629 153.742 518.175 162.45L540 180L561.825 162.45C570.371 153.742 580.566 146.825 591.816 142.103C603.066 137.381 615.144 134.949 627.345 134.949C639.546 134.949 651.624 137.381 662.874 142.103C674.124 146.825 684.319 153.742 692.865 162.45C710.273 180.157 720.027 203.994 720.027 228.825C720.027 253.656 710.273 277.493 692.865 295.2L540 450Z" stroke="#38E07B" stroke-width="50" stroke-linecap="round" stroke-linejoin="round"/>
<path d="M540 630L387.135 784.8C369.728 802.507 359.973 826.344 359.973 851.175C359.973 876.006 369.728 899.843 387.135 917.55C395.681 926.258 405.876 933.175 417.126 937.897C428.376 942.619 440.454 945.051 452.655 945.051C464.856 945.051 476.934 942.619 488.184 937.897C499.434 933.175 509.629 926.258 518.175 917.55L540 900L561.825 917.55C570.371 926.258 580.566 933.175 591.816 937.897C603.066 942.619 615.144 945.051 627.345 945.051C639.546 945.051 651.624 942.619 662.874 937.897C674.124 933.175 684.319 926.258 692.865 917.55C710.273 899.843 720.027 876.006 720.027 851.175C720.027 826.344 710.273 802.507 692.865 784.8L540 630Z" stroke="#38E07B" stroke-width="50" stroke-linecap="round" stroke-linejoin="round"/>
<path d="M630 540L784.8 387.135C802.507 369.728 826.344 359.973 851.175 359.973C876.006 359.973 899.843 369.728 917.55 387.135C926.258 395.681 933.175 405.876 937.897 417.126C942.619 428.376 945.051 440.454 945.051 452.655C945.051 464.856 942.619 476.934 937.897 488.184C933.175 499.434 926.258 509.629 917.55 518.175L900 540L917.55 561.825C926.258 570.371 933.175 580.566 937.897 591.816C942.619 603.066 945.051 615.144 945.051 627.345C945.051 639.546 942.619 651.624 937.897 662.874C933.175 674.124 926.258 684.319 917.55 692.865C899.843 710.273 876.006 720.027 851.175 720.027C826.344 720.027 802.507 710.273 784.8 692.865L630 540Z" stroke="#38E07B" stroke-width="50" stroke-linecap="round" stroke-linejoin="round"/>
<path d="M450 540L295.2 387.135C277.493 369.728 253.656 359.973 228.825 359.973C203.994 359.973 180.157 369.728 162.45 387.135C153.742 395.681 146.825 405.876 142.103 417.126C137.381 428.376 134.949 440.454 134.949 452.655C134.949 464.856 137.381 476.934 142.103 488.184C146.825 499.434 153.742 509.629 162.45 518.175L180 540L162.45 561.825C153.742 570.371 146.825 580.566 142.103 591.816C137.381 603.066 134.949 615.144 134.949 627.345C134.949 639.546 137.381 651.624 142.103 662.874C146.825 674.124 153.742 684.319 162.45 692.865C180.157 710.273 203.994 720.027 228.825 720.027C253.656 720.027 277.493 710.273 295.2 692.865L450 540Z" stroke="#38E07B" stroke-width="50" stroke-linecap="round" stroke-linejoin="round"/>
</svg>
