<?xml version="1.0" encoding="UTF-8"?>
<svg id="Layer_1" xmlns="http://www.w3.org/2000/svg" version="1.1" viewBox="0 0 1080 1080">
  <!-- Generator: Adobe Illustrator 29.0.1, SVG Export Plug-In . SVG Version: 2.1.0 Build 192)  -->
  <defs>
    <style>
      .st0 {
        fill: none;
        stroke: #f4f6f7;
        stroke-linecap: round;
        stroke-linejoin: round;
        stroke-width: 50px;
      }
    </style>
  </defs>
  <path class="st0" d="M540,450l-152.9-154.8c-17.4-17.7-27.2-41.5-27.2-66.4s9.8-48.7,27.2-66.4c8.5-8.7,18.7-15.6,30-20.3s23.3-7.2,35.5-7.2,24.3,2.4,35.5,7.2,21.4,11.6,30,20.3l21.8,17.6,21.8-17.6c8.5-8.7,18.7-15.6,30-20.3s23.3-7.2,35.5-7.2,24.3,2.4,35.5,7.2,21.4,11.6,30,20.3c17.4,17.7,27.2,41.5,27.2,66.4s-9.8,48.7-27.2,66.4l-152.9,154.8h.2Z"/>
  <path class="st0" d="M540,630l-152.9,154.8c-17.4,17.7-27.2,41.5-27.2,66.4s9.8,48.7,27.2,66.4c8.5,8.7,18.7,15.6,30,20.3,11.2,4.7,23.3,7.2,35.5,7.2s24.3-2.4,35.5-7.2c11.2-4.7,21.4-11.6,30-20.3l21.8-17.5,21.8,17.5c8.5,8.7,18.7,15.6,30,20.3,11.2,4.7,23.3,7.2,35.5,7.2s24.3-2.4,35.5-7.2c11.2-4.7,21.4-11.6,30-20.3,17.4-17.7,27.2-41.5,27.2-66.4s-9.8-48.7-27.2-66.4l-152.9-154.8h.2Z"/>
  <path class="st0" d="M630,540l154.8-152.9c17.7-17.4,41.5-27.2,66.4-27.2s48.7,9.8,66.4,27.2c8.7,8.5,15.6,18.7,20.3,30,4.7,11.2,7.2,23.3,7.2,35.5s-2.4,24.3-7.2,35.5c-4.7,11.2-11.6,21.4-20.3,30l-17.5,21.8,17.5,21.8c8.7,8.5,15.6,18.7,20.3,30,4.7,11.2,7.2,23.3,7.2,35.5s-2.4,24.3-7.2,35.5c-4.7,11.2-11.6,21.4-20.3,30-17.7,17.4-41.5,27.2-66.4,27.2s-48.7-9.8-66.4-27.2l-154.8-152.9v.2Z"/>
  <path class="st0" d="M450,540l-154.8-152.9c-17.7-17.4-41.5-27.2-66.4-27.2s-48.7,9.8-66.4,27.2c-8.7,8.5-15.6,18.7-20.3,30s-7.2,23.3-7.2,35.5,2.4,24.3,7.2,35.5,11.6,21.4,20.3,30l17.6,21.8-17.6,21.8c-8.7,8.5-15.6,18.7-20.3,30s-7.2,23.3-7.2,35.5,2.4,24.3,7.2,35.5,11.6,21.4,20.3,30c17.7,17.4,41.5,27.2,66.4,27.2s48.7-9.8,66.4-27.2l154.8-152.9v.2Z"/>
</svg>